<?xml version="1.0" encoding="UTF-8" standalone="no"?><!DOCTYPE svg PUBLIC "-//W3C//DTD SVG 1.1//EN" "http://www.w3.org/Graphics/SVG/1.1/DTD/svg11.dtd"><svg width="100%" height="100%" viewBox="0 0 84 67" version="1.1" xmlns="http://www.w3.org/2000/svg" xmlns:xlink="http://www.w3.org/1999/xlink" xml:space="preserve" xmlns:serif="http://www.serif.com/" style="fill-rule:evenodd;clip-rule:evenodd;stroke-linejoin:round;stroke-miterlimit:2;"><g id="Icons"><g id="Rounded"><g id="File"><g id="_-Round---File---folder" serif:id="-Round-/-File-/-folder"><g><path id="Path" d="M-8.333,-16.667l100,0l-0,100l-100,0l-0,-100Z" style="fill:none;"/><path id="🔹-Icon-Color" d="M35.792,2.458c-1.584,-1.583 -3.709,-2.458 -5.917,-2.458l-21.542,0c-4.583,0 -8.291,3.75 -8.291,8.333l-0.042,50c0,4.584 3.75,8.334 8.333,8.334l66.667,-0c4.583,-0 8.333,-3.75 8.333,-8.334l0,-41.666c0,-4.584 -3.75,-8.334 -8.333,-8.334l-33.333,0l-5.875,-5.875Z" style="fill:#1d1d1d;"/></g></g></g></g><clipPath id="_clip1"><rect id="_6225613841556281668.svg" serif:id="6225613841556281668.svg" x="21.042" y="14.583" width="41.25" height="45.833"/></clipPath><g clip-path="url(#_clip1)"><g id="Icons1" serif:id="Icons"><g id="Rounded1" serif:id="Rounded"><g id="Social"><g id="_-Round---Social---share" serif:id="-Round-/-Social-/-share"><g><path id="Path1" serif:id="Path" d="M14.167,10l55,0l-0,55l-55,-0l-0,-55Z" style="fill:none;"/><path id="🔹-Icon-Color1" serif:id="🔹-Icon-Color" d="M55.417,46.85c-1.742,-0 -3.3,0.687 -4.492,1.765l-16.34,-9.511c0.115,-0.527 0.207,-1.054 0.207,-1.604c-0,-0.55 -0.092,-1.077 -0.207,-1.604l16.157,-9.419c1.237,1.146 2.864,1.856 4.675,1.856c3.804,0 6.875,-3.071 6.875,-6.875c-0,-3.804 -3.071,-6.875 -6.875,-6.875c-3.805,0 -6.875,3.071 -6.875,6.875c-0,0.55 0.091,1.077 0.206,1.604l-16.156,9.419c-1.238,-1.146 -2.865,-1.856 -4.675,-1.856c-3.804,-0 -6.875,3.071 -6.875,6.875c-0,3.804 3.071,6.875 6.875,6.875c1.81,-0 3.437,-0.71 4.675,-1.856l16.316,9.533c-0.114,0.481 -0.183,0.985 -0.183,1.49c-0,3.689 3.002,6.691 6.692,6.691c3.689,0 6.691,-3.002 6.691,-6.691c0,-3.69 -3.002,-6.692 -6.691,-6.692Z" style="fill:#fff;"/></g></g></g></g></g></g></g></svg>